<svg width="900" height="300" viewBox="0 0 900 300" xmlns="http://www.w3.org/2000/svg">
  <!-- Compass: light/beige palette -->
  <svg x="0" y="0" width="300" height="300" viewBox="50 50 600 600">
    <circle cx="350" cy="350" r="300" fill="#f5f2ee"/>
    <g transform="translate(350,350)">
      <line x1="0" y1="-290" x2="0" y2="-275" stroke="#b8956a" stroke-width="1.5" transform="rotate(0)"/>
      <line x1="0" y1="-290" x2="0" y2="-275" stroke="#b8956a" stroke-width="1.5" transform="rotate(30)"/>
      <line x1="0" y1="-290" x2="0" y2="-275" stroke="#b8956a" stroke-width="1.5" transform="rotate(60)"/>
      <line x1="0" y1="-290" x2="0" y2="-275" stroke="#b8956a" stroke-width="1.5" transform="rotate(90)"/>
      <line x1="0" y1="-290" x2="0" y2="-275" stroke="#b8956a" stroke-width="1.5" transform="rotate(120)"/>
      <line x1="0" y1="-290" x2="0" y2="-275" stroke="#b8956a" stroke-width="1.5" transform="rotate(150)"/>
      <line x1="0" y1="-290" x2="0" y2="-275" stroke="#b8956a" stroke-width="1.5" transform="rotate(180)"/>
      <line x1="0" y1="-290" x2="0" y2="-275" stroke="#b8956a" stroke-width="1.5" transform="rotate(210)"/>
      <line x1="0" y1="-290" x2="0" y2="-275" stroke="#b8956a" stroke-width="1.5" transform="rotate(240)"/>
      <line x1="0" y1="-290" x2="0" y2="-275" stroke="#b8956a" stroke-width="1.5" transform="rotate(270)"/>
      <line x1="0" y1="-290" x2="0" y2="-275" stroke="#b8956a" stroke-width="1.5" transform="rotate(300)"/>
      <line x1="0" y1="-290" x2="0" y2="-275" stroke="#b8956a" stroke-width="1.5" transform="rotate(330)"/>
      <line x1="0" y1="-290" x2="0" y2="-282" stroke="#d4b896" stroke-width="0.8" transform="rotate(10)"/>
      <line x1="0" y1="-290" x2="0" y2="-282" stroke="#d4b896" stroke-width="0.8" transform="rotate(20)"/>
      <line x1="0" y1="-290" x2="0" y2="-282" stroke="#d4b896" stroke-width="0.8" transform="rotate(40)"/>
      <line x1="0" y1="-290" x2="0" y2="-282" stroke="#d4b896" stroke-width="0.8" transform="rotate(50)"/>
      <line x1="0" y1="-290" x2="0" y2="-282" stroke="#d4b896" stroke-width="0.8" transform="rotate(70)"/>
      <line x1="0" y1="-290" x2="0" y2="-282" stroke="#d4b896" stroke-width="0.8" transform="rotate(80)"/>
      <line x1="0" y1="-290" x2="0" y2="-282" stroke="#d4b896" stroke-width="0.8" transform="rotate(100)"/>
      <line x1="0" y1="-290" x2="0" y2="-282" stroke="#d4b896" stroke-width="0.8" transform="rotate(110)"/>
      <line x1="0" y1="-290" x2="0" y2="-282" stroke="#d4b896" stroke-width="0.8" transform="rotate(130)"/>
      <line x1="0" y1="-290" x2="0" y2="-282" stroke="#d4b896" stroke-width="0.8" transform="rotate(140)"/>
      <line x1="0" y1="-290" x2="0" y2="-282" stroke="#d4b896" stroke-width="0.8" transform="rotate(160)"/>
      <line x1="0" y1="-290" x2="0" y2="-282" stroke="#d4b896" stroke-width="0.8" transform="rotate(170)"/>
      <line x1="0" y1="-290" x2="0" y2="-282" stroke="#d4b896" stroke-width="0.8" transform="rotate(190)"/>
      <line x1="0" y1="-290" x2="0" y2="-282" stroke="#d4b896" stroke-width="0.8" transform="rotate(200)"/>
      <line x1="0" y1="-290" x2="0" y2="-282" stroke="#d4b896" stroke-width="0.8" transform="rotate(220)"/>
      <line x1="0" y1="-290" x2="0" y2="-282" stroke="#d4b896" stroke-width="0.8" transform="rotate(230)"/>
      <line x1="0" y1="-290" x2="0" y2="-282" stroke="#d4b896" stroke-width="0.8" transform="rotate(250)"/>
      <line x1="0" y1="-290" x2="0" y2="-282" stroke="#d4b896" stroke-width="0.8" transform="rotate(260)"/>
      <line x1="0" y1="-290" x2="0" y2="-282" stroke="#d4b896" stroke-width="0.8" transform="rotate(280)"/>
      <line x1="0" y1="-290" x2="0" y2="-282" stroke="#d4b896" stroke-width="0.8" transform="rotate(290)"/>
      <line x1="0" y1="-290" x2="0" y2="-282" stroke="#d4b896" stroke-width="0.8" transform="rotate(310)"/>
      <line x1="0" y1="-290" x2="0" y2="-282" stroke="#d4b896" stroke-width="0.8" transform="rotate(320)"/>
      <line x1="0" y1="-290" x2="0" y2="-282" stroke="#d4b896" stroke-width="0.8" transform="rotate(340)"/>
      <line x1="0" y1="-290" x2="0" y2="-282" stroke="#d4b896" stroke-width="0.8" transform="rotate(350)"/>
    </g>
    <circle cx="350" cy="350" r="270" fill="none" stroke="#b8956a" stroke-width="1.5"/>
    <circle cx="350" cy="350" r="255" fill="none" stroke="#d4b896" stroke-width="0.8"/>
    <circle cx="350" cy="350" r="250" fill="#ffffff"/>
    <circle cx="350" cy="350" r="250" fill="none" stroke="#d4b896" stroke-width="0.8"/>
    <line x1="350" y1="110" x2="350" y2="590" stroke="#d4b896" stroke-width="0.8"/>
    <line x1="110" y1="350" x2="590" y2="350" stroke="#d4b896" stroke-width="0.8"/>
    <!-- Needle -->
    <g transform="translate(350,350)">
      <polygon points="0,-180 -18,-80 0,-100 18,-80" fill="#5a6e8a"/>
      <polygon points="0,180 -18,80 0,100 18,80" fill="#1e2d4a"/>
      <polygon points="180,0 80,-18 100,0 80,18" fill="#1e2d4a"/>
      <polygon points="-180,0 -80,-18 -100,0 -80,18" fill="#1e2d4a"/>
      <polygon points="0,-60 -8,-30 0,-40 8,-30" fill="#d4830a" opacity="0.9" transform="rotate(45)"/>
      <polygon points="0,-60 -8,-30 0,-40 8,-30" fill="#9db0c8" opacity="0.8" transform="rotate(135)"/>
      <polygon points="0,-60 -8,-30 0,-40 8,-30" fill="#9db0c8" opacity="0.8" transform="rotate(225)"/>
      <polygon points="0,-60 -8,-30 0,-40 8,-30" fill="#d4830a" opacity="0.9" transform="rotate(315)"/>
      <circle cx="0" cy="0" r="22" fill="none" stroke="#b8956a" stroke-width="1.5"/>
      <circle cx="0" cy="0" r="8" fill="#4a7aaa"/>
    </g>
  </svg>
  <!-- Wordmark -->
  <text x="600" y="128" text-anchor="middle" fill="#c9d8ec" font-family="'Inter',sans-serif" font-size="88" font-weight="300" letter-spacing="8">ASTROLABE</text>
  <text x="600" y="222" text-anchor="middle" fill="#c9d8ec" font-family="'Inter',sans-serif" font-size="88" font-weight="300" letter-spacing="12">EXPLORER</text>
</svg>
